#!OML:ASF F:\VICON\USERDATA\Patient Classification 1\PLAYGROUND\JustinFriday\JustinFriday.ASF
:FULLY-SPECIFIED
:DEGREES
2150
root 21.7538 17.8224 25.9581 -360.775 -127.071 2.55766
lowerback 11.8064 2.35869 -3.9306
upperback 1.34264 2.70112 3.20931
thorax -5.55586 1.40852 5.17024
lowerneck -4.90238 6.81228 -0.105567
upperneck -1.15615 9.06045 -2.74288
head 0.573725 4.48334 -0.638405
rclavicle 3.3694e-014 2.54444e-014
rhumerus -31.3748 -15.6079 -72.9146
rradius 24.5186
rwrist -9.60611
rhand -18.2508 -22.0084
rfingers 7.12502
rthumb 8.02826 -411.836
lclavicle 3.3694e-014 2.54444e-014
lhumerus -27.2326 -1.4657 86.1716
lradius 47.5069
lwrist 5.66315
lhand -17.3915 -11.7421
lfingers 7.12502
lthumb 8.85753 18.052
rfemur -27.4183 0.616435 15.2433
rtibia 16.619
rfoot -9.13423 -1.40883
rtoes -11.4896
lfemur 10.0997 -0.0273303 -24.0252
ltibia 14.1799
lfoot -14.4017 -12.5212
ltoes 16.5572
2151
root 21.6637 17.8194 25.88 -360.804 -127.007 2.81197
lowerback 11.7566 2.38211 -3.77463
upperback 1.3086 2.76249 3.4127
thorax -5.57491 1.43754 5.28893
lowerneck -4.59103 6.95101 -0.313416
upperneck -1.25383 9.25208 -3.00317
head 0.497889 4.58077 -0.693454
rclavicle 7.32522e-014 1.51076e-014
rhumerus -31.1779 -15.2554 -72.6833
rradius 24.5431
rwrist -9.4864
rhand -17.7035 -22.6909
rfingers 7.12502
rthumb 8.55645 -412.498
lclavicle 7.32522e-014 1.51076e-014
lhumerus -27.6637 -1.17165 86.1594
lradius 47.3393
lwrist 6.81981
lhand -16.6826 -12.1227
lfingers 7.12502
lthumb 9.54158 17.6413
rfemur -27.778 0.790671 15.5244
rtibia 16.9315
rfoot -7.27366 0.0819877
rtoes -11.2747
lfemur 10.4366 -0.445314 -23.9225
ltibia 13.956
lfoot -14.0661 -12.2762
ltoes 17.3508
2152
root 21.5696 17.8139 25.7999 -360.901 -126.844 3.02967
lowerback 11.7744 2.47963 -3.44529
upperback 1.33097 2.93069 3.39099
thorax -5.5637 1.51067 5.04749
lowerneck -4.52154 6.99316 0.0666467
upperneck -1.28736 9.29116 -3.34825
head 0.513976 4.59682 -0.859816
rclavicle -4.26393e-014 1.19271e-014
rhumerus -31.1084 -15.644 -72.5603
rradius 24.5578
rwrist -9.31018
rhand -17.3466 -22.8923
rfingers 7.12502
rthumb 8.90093 -412.685
lclavicle -4.26393e-014 1.19271e-014
lhumerus -28.5138 -1.51764 85.9319
lradius 48.1648
lwrist 6.99713
lhand -15.7265 -11.8396
lfingers 7.12502
lthumb 10.464 17.8799
rfemur -27.9625 0.875282 15.7888
rtibia 17.3304
rfoot -5.04319 1.22894
rtoes -12.1245
lfemur 10.9018 -1.26199 -23.9837
ltibia 13.8048
lfoot -13.9779 -11.4938
ltoes 17.0106
2153
root 21.468 17.8023 25.7137 -360.808 -126.581 2.84287
lowerback 11.7559 2.50012 -3.32796
upperback 1.42264 2.96382 3.26204
thorax -5.44682 1.51798 4.83835
lowerneck -4.63802 7.1006 0.4033
upperneck -1.0511 9.43057 -3.47579
head 0.633238 4.66165 -0.93936
rclavicle -4.70126e-014 3.18055e-015
rhumerus -30.8115 -15.7376 -72.7085
rradius 24.3337
rwrist -9.48773
rhand -17.5907 -22.145
rfingers 7.12502
rthumb 8.6653 -411.947
lclavicle -4.70126e-014 3.18055e-015
lhumerus -29.1638 -2.42161 85.815
lradius 48.5547
lwrist 7.74481
lhand -15.6281 -10.8548
lfingers 7.12502
lthumb 10.559 18.8599
rfemur -27.8206 0.784195 15.799
rtibia 17.729
rfoot -3.09052 2.47931
rtoes -11.7675
lfemur 11.3952 -1.93546 -24.2777
ltibia 13.899
lfoot -13.9589 -10.91
ltoes 16.1271
2154
root 21.3667 17.7965 25.6231 -360.725 -126.28 2.77683
lowerback 11.6242 2.4547 -3.34358
upperback 1.46336 2.90558 3.3228
thorax -5.32808 1.48665 4.92607
lowerneck -4.88712 7.28151 0.300417
upperneck -0.469816 9.70095 -3.40632
head 0.852473 4.79049 -0.873282
rclavicle -7.15625e-014 -1.51076e-014
rhumerus -30.3328 -15.1488 -72.8891
rradius 23.9365
rwrist -9.23639
rhand -17.7192 -21.7296
rfingers 7.12502
rthumb 8.54129 -411.537
lclavicle -7.15625e-014 -1.51076e-014
lhumerus -27.1774 0.965581 85.542
lradius 44.4309
lwrist 5.10576
lhand -15.5519 -11.4561
lfingers 7.12502
lthumb 10.6324 18.2549
rfemur -27.7298 1.22447 15.7052
rtibia 18.2284
rfoot -1.99441 3.28425
rtoes -12.1339
lfemur 11.6877 -2.36058 -24.3534
ltibia 14.1414
lfoot -13.7161 -10.845
ltoes 16.5021
2155
root 21.2566 17.7937 25.5297 -360.66 -125.98 2.71944
lowerback 11.4251 2.50413 -3.36006
upperback 1.52337 2.97571 3.41657
thorax -5.16805 1.51748 5.02958
lowerneck -5.13169 7.33468 0.270265
upperneck 0.0136089 9.79531 -3.52264
head 1.05322 4.82818 -0.88145
rclavicle -3.84648e-014 -7.95139e-015
rhumerus -30.1363 -15.0281 -72.8637
rradius 23.913
rwrist -8.53144
rhand -17.9944 -21.9629
rfingers 7.12502
rthumb 8.27571 -411.781
lclavicle -3.84648e-014 -7.95139e-015
lhumerus -27.7525 0.851067 85.782
lradius 44.5109
lwrist 5.47842
lhand -17.0284 -9.37952
lfingers 7.12502
lthumb 9.20798 20.3994
rfemur -27.6718 1.43657 15.7368
rtibia 18.8842
rfoot -1.90971 4.29452
rtoes -16.1223
lfemur 12.0045 -2.73614 -24.4579
ltibia 14.3969
lfoot -13.5819 -10.5644
ltoes 15.9397
2156
root 21.1401 17.7818 25.4325 -360.793 -125.685 2.71504
lowerback 11.3043 2.59324 -3.21914
upperback 1.64167 3.10843 3.42001
thorax -4.98404 1.57249 4.93548
lowerneck -5.48655 7.27164 0.535757
upperneck 0.462304 9.71848 -3.71939
head 1.28139 4.77776 -0.963404
rclavicle 3.55825e-014 9.54166e-015
rhumerus -30.199 -15.4949 -72.7308
rradius 24.1616
rwrist -8.0862
rhand -18.5512 -22.3807
rfingers 7.12502
rthumb 7.73839 -412.219
lclavicle 3.55825e-014 9.54166e-015
lhumerus -28.0998 0.76676 85.8425
lradius 44.0754
lwrist 5.62612
lhand -18.3243 -8.86354
lfingers 7.12502
lthumb 7.9573 20.9667
rfemur -27.4075 1.4279 15.9029
rtibia 19.5493
rfoot -2.12767 5.04087
rtoes -18.0293
lfemur 12.4455 -3.06738 -24.5812
ltibia 14.7641
lfoot -13.5712 -9.99425
ltoes 13.7155
2157
root 21.0294 17.7763 25.3302 -360.949 -125.226 2.77861
lowerback 11.2545 2.46835 -3.12174
upperback 1.6739 2.95502 3.48701
thorax -4.90381 1.49212 4.97831
lowerneck -5.22814 7.45543 0.437118
upperneck 0.50656 9.97165 -3.67484
head 1.24819 4.90811 -0.934847
rclavicle -3.8763e-015 1.59028e-014
rhumerus -30.1951 -15.2936 -72.7733
rradius 24.2297
rwrist -7.98249
rhand -19.1798 -22.3607
rfingers 7.12502
rthumb 7.1316 -412.221
lclavicle -3.8763e-015 1.59028e-014
lhumerus -28.437 1.47909 85.6053
lradius 43.1352
lwrist 5.36425
lhand -19.2473 -9.51574
lfingers 7.12502
lthumb 7.06641 20.3463
rfemur -27.0684 1.0959 16.1805
rtibia 20.1319
rfoot -1.86036 5.59012
rtoes -15.8602
lfemur 12.7378 -3.41063 -24.5481
ltibia 15.3143
lfoot -13.4261 -9.72323
ltoes 11.7179
2158
root 20.9224 17.7793 25.2238 -361.343 -124.551 3.24573
lowerback 11.1807 2.24058 -2.9535
upperback 1.64914 2.68018 3.71658
thorax -4.86167 1.35288 5.17322
lowerneck -4.85682 7.68267 0.26802
upperneck 0.531202 10.2872 -3.76044
head 1.19446 5.06817 -0.938656
rclavicle 2.13694e-014 -4.21423e-014
rhumerus -30.1407 -15.1083 -72.649
rradius 24.2899
rwrist -7.74095
rhand -19.1692 -22.4091
rfingers 7.12502
rthumb 7.14178 -412.269
lclavicle 2.13694e-014 -4.21423e-014
lhumerus -28.7277 2.62168 85.3329
lradius 41.9927
lwrist 4.50037
lhand -19.5221 -10.1415
lfingers 7.12502
lthumb 6.80114 19.7293
rfemur -26.7696 0.594025 16.7256
rtibia 20.7079
rfoot -1.31663 5.898
rtoes -13.1218
lfemur 12.8881 -3.88621 -24.158
ltibia 15.8792
lfoot -12.9821 -9.96909
ltoes 11.0558
2159
root 20.8173 17.7912 25.1124 -362.234 -123.837 4.201
lowerback 11.1968 2.08446 -2.58911
upperback 1.68565 2.51736 4.0089
thorax -4.81163 1.2613 5.30303
lowerneck -5.0011 7.81277 0.269944
upperneck 0.928041 10.4833 -3.99018
head 1.36463 5.15419 -0.988302
rclavicle 1.60022e-014 7.95139e-015
rhumerus -30.0229 -15.5722 -72.2995
rradius 24.405
rwrist -7.20321
rhand -18.5689 -23.2052
rfingers 7.12502
rthumb 7.7213 -413.044
lclavicle 1.60022e-014 7.95139e-015
lhumerus -28.9191 3.14745 85.3078
lradius 40.9348
lwrist 4.60319
lhand -19.9443 -10.488
lfingers 7.12502
lthumb 6.39356 19.3955
rfemur -26.3364 0.931501 17.3291
rtibia 21.2966
rfoot -0.840089 5.23832
rtoes -10.5471
lfemur 13.1756 -4.44135 -23.444
ltibia 16.3385
lfoot -12.3461 -10.4085
ltoes 10.9469
2160
root 20.7108 17.8099 24.9956 -362.745 -123.076 4.53414
lowerback 11.3425 1.93957 -2.58477
upperback 1.72539 2.32326 4.16677
thorax -4.83554 1.16305 5.49873
lowerneck -5.09142 7.93114 0.123244
upperneck 1.21841 10.6618 -3.93903
head 1.46517 5.23809 -0.933211
rclavicle -4.22417e-014 -3.02153e-014
rhumerus -30.0006 -16.1259 -72.0017
rradius 24.4124
rwrist -6.56462
rhand -18.527 -23.2737
rfingers 7.12502
rthumb 7.76173 -413.111
lclavicle -4.22417e-014 -3.02153e-014
lhumerus -29.2353 3.50535 85.2147
lradius 40.0105
lwrist 4.81599
lhand -19.8394 -10.1755
lfingers 7.12502
lthumb 6.49486 19.7049
rfemur -25.6579 1.79679 17.369
rtibia 21.7649
rfoot -0.4626 3.92783
rtoes -7.90423
lfemur 13.5014 -5.00187 -23.1261
ltibia 16.9871
lfoot -11.7578 -10.7532
ltoes 10.2214
2161
root 20.5967 17.8265 24.8749 -362.975 -122.204 4.50317
lowerback 11.446 1.82747 -2.73942
upperback 1.73846 2.15539 4.21014
thorax -4.86718 1.0833 5.66014
lowerneck -4.98734 8.02399 0.368076
upperneck 1.42059 10.7877 -4.1963
head 1.5468 5.29545 -1.04652
rclavicle -1.30403e-013 -4.6118e-014
rhumerus -30.3184 -16.7569 -71.7391
rradius 24.5882
rwrist -6.1247
rhand -18.8018 -22.449
rfingers 7.12502
rthumb 7.49644 -412.296
lclavicle -1.30403e-013 -4.6118e-014
lhumerus -29.5727 3.70534 85.113
lradius 38.9701
lwrist 4.80107
lhand -20.1299 -9.88046
lfingers 7.12502
lthumb 6.2144 20.0084
rfemur -24.9199 2.87575 17.0626
rtibia 22.1824
rfoot -0.130256 2.1543
rtoes -4.83699
lfemur 13.6992 -5.59618 -23.0489
ltibia 17.8804
lfoot -11.002 -11.0397
ltoes 9.1486
2162
root 20.4815 17.8365 24.7777 -363.5 -121.681 4.93391
lowerback 11.5975 1.87003 -2.33109
upperback 1.72914 2.25856 4.20696
thorax -4.95747 1.1272 5.40298
lowerneck -5.06558 8.05368 0.827804
upperneck 1.77788 10.8278 -4.52399
head 1.72777 5.30522 -1.20872
rclavicle 4.9398e-014 -1.59028e-014
rhumerus -30.6714 -17.2784 -71.5788
rradius 24.9855
rwrist -6.49332
rhand -18.6107 -22.8147
rfingers 7.12502
rthumb 7.68094 -412.655
lclavicle 4.9398e-014 -1.59028e-014
lhumerus -29.7695 3.68054 85.0384
lradius 37.8033
lwrist 4.45082
lhand -20.6608 -9.51684
lfingers 7.12502
lthumb 5.70188 20.3864
rfemur -24.4641 3.50458 17.1747
rtibia 22.6719
rfoot -0.0419644 1.05977
rtoes -3.19008
lfemur 13.6005 -6.07135 -22.8118
ltibia 19.0159
lfoot -9.88658 -11.1509
ltoes 9.05321
2163
root 20.3708 17.8502 24.6799 -363.811 -121.139 5.3084
lowerback 11.5929 1.89805 -2.05551
upperback 1.68761 2.33273 4.24747
thorax -4.99767 1.16018 5.2758
lowerneck -5.39243 8.08697 1.04497
upperneck 2.42282 10.8934 -4.63376
head 2.0197 5.32226 -1.24797
rclavicle -1.64991e-014 3.89618e-014
rhumerus -30.8656 -17.6128 -71.4464
rradius 25.2428
rwrist -7.21997
rhand -18.6421 -24.0092
rfingers 7.12502
rthumb 7.6506 -413.851
lclavicle -1.64991e-014 3.89618e-014
lhumerus -29.8843 3.84675 84.9263
lradius 36.5642
lwrist 4.34926
lhand -20.3535 -9.32873
lfingers 7.12502
lthumb 5.99853 20.5664
rfemur -24.0922 3.68036 17.3807
rtibia 23.0981
rfoot -0.314998 0.398913
rtoes -3.44649
lfemur 13.0195 -6.32477 -22.4256
ltibia 20.5995
lfoot -8.62237 -11.5894
ltoes 9.31043
